<?xml version="1.0" encoding="utf-8"?>
<!-- Generator: Adobe Illustrator 16.0.0, SVG Export Plug-In . SVG Version: 6.00 Build 0)  -->
<!DOCTYPE svg PUBLIC "-//W3C//DTD SVG 1.1//EN" "http://www.w3.org/Graphics/SVG/1.1/DTD/svg11.dtd">
<svg version="1.1" id="Layer_1" xmlns="http://www.w3.org/2000/svg" xmlns:xlink="http://www.w3.org/1999/xlink" x="0px" y="0px"
	 width="595.28px" height="841.89px" viewBox="0 0 595.28 841.89" enable-background="new 0 0 595.28 841.89" xml:space="preserve">
<g>
	<g id="nadyphar">
		<path fill="#EE312F" d="M159.602,469.8l3.7,33.16l4.188-35.746h12.555l-8.7,55.563l-16.411,0.811l-3.708-30.285l-5.318,29.475
			H134.32l4.351-52.977H159.602z"/>
		<path fill="#EE312F" d="M186.323,472.058h14.654v-4.674h16.732l-4.343,55.393h-13.522v-11.268h-7.569l-2.407,11.268h-12.237
			L186.323,472.058z M194.049,504.109h5.796v-26.258L194.049,504.109z"/>
		<path fill="#EE312F" d="M240.584,475.283l-6.766,46.848c5.042-6.549,8.779-12.449,11.193-17.713
			c2.415-5.26,3.623-9.938,3.623-14.01c0-4.414-1.36-8.314-4.072-11.75c-2.708-3.438-6.609-6.457-11.71-9.045l14.489-4.008
			c5.747,2.771,9.948,5.963,12.604,9.492c2.653,3.561,3.986,7.617,3.986,12.246s-1.37,9.908-4.112,15.867
			c-2.515,5.42-6.464,11.951-11.828,19.566h-27.206l5.146-47.494H240.584z"/>
		<path fill="#EE312F" d="M308.524,465.777l-15.458,57h-13.032l3.217-14.176h-12.4c-0.858-2.883-1.501-5.963-1.932-9.215
			c-0.435-3.25-0.65-6.486-0.65-9.77c0-3.129,0.193-6.346,0.572-9.66c0.371-3.342,0.888-6.656,1.522-9.986h14.014
			c-1.186,10.018-1.806,15.314-1.85,15.857c-0.383,3.76-0.569,6.73-0.569,8.93c0,4.66,0.644,8.203,1.936,10.619l8.53-39.6H308.524z"
			/>
		<path fill="#EE312F" d="M327.683,471.085l-4.502,33.814c2.938-4.814,5.186-9.229,6.717-13.207
			c1.52-3.963,2.291-7.463,2.291-10.465c0-3.439-1.084-6.443-3.221-8.984c-2.135-2.566-5.416-4.609-9.814-6.16l17.063-4.844
			c3.961,1.73,6.873,3.945,8.701,6.658c1.824,2.709,2.723,5.865,2.723,9.459c0,3.871-0.898,8.328-2.723,13.375
			c-1.611,4.457-4.027,9.6-7.248,15.453h-14.645l-2.266,16.439h-13.201l4.666-51.539H327.683z"/>
		<path fill="#EE312F" d="M368.556,471.906l-3.236,24.617l8.578,0.17l3.219-28.98h15.605l-9.164,55.064h-12.572l2.107-19.49
			l-9.043,1.287l-2.602,18.203H348.94l4.336-50.871H368.556z"/>
		<path fill="#EE312F" d="M399.966,472.058h14.639v-4.674h16.75l-4.334,55.393h-13.531v-11.268h-7.553l-2.414,11.268H391.28
			L399.966,472.058z M407.702,504.109h5.787v-26.258L407.702,504.109z"/>
		<path fill="#EE312F" d="M456.313,472.371l-4.986,31.396c2.508-4.086,4.986-8.109,7.371-12.107c2.381-3.99,3.588-7.215,3.588-9.629
			c0-2.537-1.051-4.971-3.156-7.338c-2.289-2.635-5.916-5.295-10.867-7.973l16.443-3.207c4.859,2.512,8.514,5.172,10.896,7.93
			c2.385,2.756,3.592,5.635,3.592,8.641v0.338c0,3.266-1.301,6.936-3.871,11.023c-2.043,3.283-5.416,7.492-10.154,12.646
			l9.039,18.686h-16.131l-7.059-16.268l-2.756,16.268h-13.686l6.285-50.406H456.313z"/>
	</g>
	<g>
		<g id="background">
			<rect x="190.119" y="212.606" fill="#0095DA" width="233.276" height="230.673"/>
		</g>
		<g id="_x32_-9">
			<path fill="#FFFFFF" d="M311.859,309.711c-0.107-1.345-0.854-1.877-3.229-2.442l0.106,5.627
				C310.758,311.657,312.17,312.146,311.859,309.711z"/>
			<path fill="#FFFFFF" d="M300.245,325.114c0.818,1.792,1.422,2.586,4.604,3.352l0.031-10.522
				c-1.924,0.687-0.763,0.222-2.341,1.156C301.152,320.028,299.425,321.793,300.245,325.114z"/>
			<path fill="#FFFFFF" d="M388.039,242.407h-70.117c-6.154,0-11.146,4.977-11.146,11.118v8.939
				c0.265,0.057,0.526,0.103,0.796,0.168c1.349,0.29,7.207,1.803,10.567,6.745c0.426,0.464,2.07,2.09,1.157,4.124
				c-0.369,1.513-0.675,2.846-0.614,4.129c0.069,0.693,0.245,1.042-0.367,2.321c-0.245,0.684-0.397,1.219,1.254,3.313
				c-0.92-0.949-1.394-1.206-1.697-1.989c-0.304,0.635-0.916,1.199-1.565,1.465c0.707-0.509,1.952-1.856,0.542-2.965
				c-0.483-0.58-2.988-2.499-3.843-3.37c-0.915-0.753-2.015-0.928-1.708-4.069c0.179-0.517,0.425-1.856-0.793-2.615
				c-0.526-0.345-1.488-1.219-3.729-1.457v15.408l35.05,0.057l-33.065,10.618l0.094,8.021c4.7,1.632,5.746,2.518,7.086,4.201
				c0.485,0.754,1.97,2.15,0.103,5.375c-0.7,0.883-1.609,2.766-7.448,4.595l0.07,11.693c1.087-0.217,1.303-0.582,2.326-2.075
				c0.919-1.108,1.162-1.633,2.257-2.444c0.431-0.17,1.41-0.404,1.654,0.759c-0.123,0.984-0.984,2.384-1.348,2.734
				c-0.126,0.215-0.85,1.352-2.311,2.349l19.916,6.238h-24.384v15.428c1.377,0.037,2.476,1.167,2.476,2.563v4.963
				c0,0.17-0.019,0.334-0.055,0.506l52.294,30.247l4.985,2.852c0,0,1.542,1.208-0.914,2.246c-1.591,0.027-25.64-0.033-51.591-0.096
				v18.915h3.95h70.117c5.938,0.086,11.152,0.736,11.152-5.593V253.525C399.191,247.384,394.199,242.407,388.039,242.407z
				 M365.969,342.174c0,4.414-3.588,7.993-8.011,7.993c-4.426,0-8.013-3.58-8.013-7.993v-72.751c0-4.414,3.587-7.996,8.013-7.996
				c4.423,0,8.011,3.583,8.011,7.996V342.174z"/>
			<path fill="#FFFFFF" d="M308.854,302.371C308.773,302.339,309.987,302.838,308.854,302.371L308.854,302.371z"/>
			<path fill="#FFFFFF" d="M308.595,316.542C309.017,316.389,308.595,316.542,308.595,316.542L308.595,316.542z"/>
			<path fill="#FFFFFF" d="M304.827,314.358c-0.02,0.008-0.034,0.016-0.053,0.023C304.926,314.325,305.081,314.265,304.827,314.358z
				"/>
			<path fill="#FFFFFF" d="M295.609,242.407h-70.121c-6.154,0-11.146,4.977-11.146,11.118v85.389l33.303-19.463v-49.494
				c0-4.414,3.585-7.991,8.012-7.991c4.422,0,8.007,3.577,8.007,7.991v60.851l0.26,22.367c0.165,3.413-3.33,6.047-4.847,7.121
				c-1.352,0.96-20.963,14.932-20.963,14.932l-18.981,12.87c0,0-3.712,2.165-4.791,7.441v6.763c0,3.023-0.044,7.407,0,11.118h11.146
				h70.121h4.559v-18.956c-27.092-0.073-52.288-0.149-52.288-0.149s-2.337-0.752-0.455-3.171c1.367-1.328,1.543-2.48,15.631-9.566
				l14.093-7.097c0,0,17.476-8.783,27.178-14.837c-0.102-0.281-0.161-0.582-0.161-0.894v-4.963c0-1.417,1.137-2.569,2.541-2.569
				c0.016,0,0.028,0.002,0.053,0.007v-15.43h-25.48l19.107-5.938c-2.368-1.849-4.633-3.374-3.069-9.043
				c0.707-1.883,1.457-3.886,7.458-6.431c-0.163,0.063-0.319,0.12,0.053-0.023l-0.028-8.47c-0.489-0.143-6.145-1.935-10.294-5.188
				c-1.586-1.449-4.396-2.9-8.488-12.147l-14.9-4.646h13.192c0,0-0.553-4.3-0.124-7.037c0.187-1.801,0.492-8.196,8.368-12.497
				c1.002-0.561,6.188-3.608,14.207-1.916v-8.933C306.759,247.384,301.765,242.407,295.609,242.407z"/>
			<path fill="#FFFFFF" d="M304.976,300.769v-6.229l-11.386-3.658C293.59,290.881,295.517,295.956,304.976,300.769z"/>
			<path fill="#FFFFFF" d="M302.199,268.564c-1.588,0.285-8.79,1.391-11.479,9.235c-0.125,1.048-0.79,1.808,0.058,5.872h14.109
				l1.871,0.003v-15.412C305.611,268.147,304.136,268.192,302.199,268.564z"/>
		</g>
	</g>
</g>
</svg>
