<?xml version="1.0" encoding="utf-8"?>
<!-- Generator: Adobe Illustrator 16.0.0, SVG Export Plug-In . SVG Version: 6.00 Build 0)  -->
<!DOCTYPE svg PUBLIC "-//W3C//DTD SVG 1.1//EN" "http://www.w3.org/Graphics/SVG/1.1/DTD/svg11.dtd">
<svg version="1.1" id="Layer_1" xmlns="http://www.w3.org/2000/svg" xmlns:xlink="http://www.w3.org/1999/xlink" x="0px" y="0px"
	 width="595.28px" height="841.89px" viewBox="0 0 595.28 841.89" enable-background="new 0 0 595.28 841.89" xml:space="preserve">
<g>
	<g>
		<g>
			<path fill="#8DC63F" d="M80.581,399.138c0,0,2.283-6.732-2.07-10.879c0.05,2.209,0.05,2.209,0.05,2.209s-0.449-4.237-7.645-6.333
				c0.22,1.715,0.22,1.715,0.22,1.715s-3.489-4.196-14.874-3.01c0,0-0.767,5.376,5.868,11.152c-1.219,0.237-1.219,0.237-1.219,0.237
				s3.662,4.511,7.925,4.14c-1.511,0.822-1.511,0.822-1.511,0.822s4.575,2.353,9.371-0.597c-2.176-1.627-2.176-1.627-2.176-1.627
				l-4.304-1.033l3.016,0.059l-2.241-1.924l-3.62-0.498l2.928-0.041c0,0-6.861-5.518-7.046-6.231
				c1.258,0.981,3.905,3.065,4.365,3.298c-0.168-0.462-0.618-1.855-0.618-1.855l1.549,2.569l4.469,3.219l-0.933-2.571l1.97,3.166
				C74.053,395.124,79.2,398.991,80.581,399.138z"/>
			<path fill="#50B848" d="M81.48,397.984c0,0,2.522-8.017,10.646-10.85c-2.067,2.304-2.067,2.304-2.067,2.304
				s4.322-4.296,13.412-3.977c-1.785,1.729-1.785,1.729-1.785,1.729s7.314-3.198,17.584,2.041c0,0-4.146,5.922-16.045,9.671
				c0.996,0.671,0.996,0.671,0.996,0.671s-7.772,3.458-11.683,1.58c0.755,1.39,0.755,1.39,0.755,1.39s-10.688,1.252-12.775-3.53
				c3.653-0.943,7.628-1.323,7.628-1.323l5.241,0.423l-3.063-0.993l4.006-1.239l4.052,0.743l-2.879-1.065
				c0,0,11.888-3.398,12.718-4.084c-2.147,0.585-6.688,1.858-7.36,1.937c0.587-0.427,2.307-1.731,2.307-1.731l-3.899,2.151
				l-7.384,1.821l3.278-2.379l-4.863,2.641C90.302,395.914,82.993,398.32,81.48,397.984z"/>
		</g>
		<path fill="#E3362F" d="M79.027,429.732l0.288,0.576c-3.938,1.5-5.461,1.629-7.313,2.063c-2.938,0.688-6.738,0.612-9,0.125
			c-4.063-0.875-7.625-2.813-9.688-5.5c-1.68-2.189-2.713-4.713-2.713-7.785c0-3.96,1.638-7.47,4.914-10.529
			c3.276-3.061,7.038-4.591,11.286-4.591c2.064,0,3.672,0.553,4.824,1.656c1.152,1.104,1.728,2.664,1.728,4.681
			c0,3.048-1.254,5.897-3.762,8.55c-2.508,2.652-5.19,3.978-8.046,3.978c-1.104,0-2.004-0.264-2.7-0.792
			c-0.696-0.527-1.044-1.224-1.044-2.088c0-0.96,0.36-2.052,1.08-3.276c0.72-1.224,1.704-2.641,2.808-3.553
			c0.912-0.721,4.201-2.941,5.25-3.5c6.813-3.625,9.563-6.625,13.831-10.795c0,0-5.518,6.545-12.6,11.692
			c-1.806,1.313-3.937,2.353-5.832,4.031c-2.448,2.185-3.672,4.081-3.672,5.688c0,0.48,0.144,0.876,0.432,1.188
			c0.288,0.312,0.672,0.468,1.152,0.468c2.088,0,4.512-1.765,7.272-5.292c2.688-3.432,4.032-6.229,4.032-8.389
			c0-1.031-0.33-1.89-0.99-2.573c-0.661-0.685-1.506-1.026-2.538-1.026c-2.088,0-4.188,1.188-6.3,3.564
			c-1.824,2.063-3.366,4.607-4.626,7.632c-1.26,3.023-2.052,5.586-1.89,7.668c0.167,2.143,1.274,3.188,2.479,4.268
			c1.188,1.063,3.5,2.5,5.438,2.938c1.778,0.401,5.125,1.125,8.313,0.625C72.873,431.209,76.674,430.621,79.027,429.732z"/>
	</g>
	<g>
		<path fill="#006838" d="M552.334,417.687c0,0-3.27-0.797-4.498-2.485c1.045,0.487,1.045,0.487,1.045,0.487
			s-1.943-0.998-1.695-2.755c0.785,0.413,0.785,0.413,0.785,0.413s-1.41-1.537,1.133-3.33c0,0,2.709,1.03,4.316,3.481
			c0.32-0.169,0.32-0.169,0.32-0.169s1.527,1.647,0.604,2.326c0.654-0.09,0.654-0.09,0.654-0.09s0.334,1.335-1.91,1.559
			c-0.391-0.747-0.391-0.747-0.391-0.747l0.246-1l-0.492,0.559l-0.527-0.825l0.387-0.757l-0.531,0.513c0,0-1.441-2.436-1.752-2.623
			c0.248,0.441,0.783,1.371,0.82,1.509c-0.195-0.135-0.785-0.518-0.785-0.518l0.965,0.837l0.762,1.504l-1.068-0.726l1.164,1.042
			C551.885,415.892,552.506,417.404,552.334,417.687z"/>
		<path fill="#E3362F" d="M85.378,404.515l-8.568,23.049l-0.072,0.288l0.072,0.144l0.288-0.288l1.224-2.52
			c0.768-1.584,1.572-3.036,2.412-4.356c1.176-1.848,2.352-3.287,3.528-4.319c1.488-1.32,2.94-1.98,4.356-1.98
			c0.84,0,1.494,0.188,1.962,0.562c0.468,0.374,0.702,0.887,0.702,1.538c0,0.289-0.048,0.633-0.144,1.031
			c-0.096,0.398-0.216,0.803-0.36,1.213l-2.52,6.08c-0.24,0.725-0.36,1.327-0.36,1.81c0,0.772,0.408,1.158,1.224,1.158
			c0.624,0,1.283-0.148,1.98-0.446c0.216-0.099,1.211-0.67,2.988-1.713l0.288,0.441c-1.08,0.835-2.22,1.498-3.42,1.989
			c-1.201,0.491-2.412,0.737-3.636,0.737c-1.296,0-2.352-0.278-3.168-0.833s-1.224-1.291-1.224-2.208c0-0.289,0.06-0.669,0.18-1.14
			c0.12-0.471,0.252-0.936,0.396-1.395l2.952-7.311l0.144-0.362l-0.144-0.072c-0.096,0-0.348,0.192-0.756,0.576
			c-0.312,0.312-0.78,0.816-1.404,1.512c-1.176,1.368-2.34,2.94-3.492,4.716c-0.816,1.225-1.836,2.916-3.06,5.076
			c-0.336,0.624-0.661,1.021-0.972,1.188c-0.312,0.167-0.9,0.252-1.764,0.252c-0.816,0-1.488-0.24-2.016-0.721
			c-0.527-0.48-0.792-1.104-0.792-1.873c0-0.552,0.144-1.151,0.432-1.8l6.984-18.871L85.378,404.515z"/>
		<path fill="#E3362F" d="M111.802,414.531l-3.888,10.498c-0.24,0.555-0.36,0.965-0.36,1.23c0,0.869,0.48,1.304,1.44,1.304
			c0.624,0,1.374-0.168,2.25-0.504s1.71-0.792,2.502-1.368l0.288,0.432c-0.984,0.792-2.142,1.435-3.474,1.926
			c-1.332,0.492-2.574,0.738-3.726,0.738c-1.8,0-3.12-0.552-3.96-1.656c-1.656,1.104-3.36,1.656-5.112,1.656
			c-1.344,0-2.388-0.264-3.132-0.792c-0.888-0.624-1.332-1.584-1.332-2.88c0-1.08,0.3-2.31,0.9-3.69
			c0.6-1.379,1.38-2.621,2.34-3.726c1.8-2.111,4.056-3.168,6.768-3.168c1.416,0,2.424,0.336,3.024,1.008L111.802,414.531z
			 M105.898,416.188c-0.48-0.624-1.104-0.937-1.872-0.937c-0.672,0-1.23,0.252-1.674,0.756c-0.444,0.505-0.99,1.549-1.638,3.133
			c-0.6,1.32-1.11,2.64-1.53,3.96c-0.42,1.32-0.63,2.231-0.63,2.735c0,1.152,0.504,1.729,1.512,1.729
			c0.432,0,0.876-0.108,1.332-0.324c0.192-0.096,0.612-0.348,1.26-0.756l-0.144-0.72c0-0.288,0.05-0.66,0.15-1.116
			c0.04-0.192,0.11-0.444,0.21-0.756L105.898,416.188z"/>
		<path fill="#E3362F" d="M104.961,407.476h3.672c0.288,1.728,0.864,3.336,1.728,4.823h-1.44c-0.456-0.312-1.02-0.731-1.692-1.26
			c-0.552-0.432-1.116-0.876-1.692-1.332c-0.936,0.864-1.872,1.729-2.808,2.592h-1.296c0.912-0.887,1.644-1.703,2.196-2.447
			C104.182,409.107,104.626,408.315,104.961,407.476z M112.738,404.739h5.472c-0.672,0.733-1.596,1.561-2.772,2.482
			c-1.008,0.781-2.004,1.562-2.988,2.342h-2.016c0.696-0.96,1.206-1.776,1.53-2.448
			C112.288,406.443,112.546,405.651,112.738,404.739z"/>
		<path fill="#E3362F" d="M118.713,409.195l5.76-1.153l-2.736,7.642h2.736l-1.008,1.439h-2.16l-2.88,8.264
			c-0.072,0.17-0.138,0.375-0.198,0.616c-0.061,0.242-0.09,0.447-0.09,0.616c0,0.821,0.456,1.232,1.368,1.232
			c0.792,0,1.728-0.24,2.808-0.721c0.768-0.335,1.632-0.815,2.592-1.439l0.288,0.432c-2.52,1.776-5.112,2.664-7.776,2.664
			c-1.345,0-2.4-0.252-3.168-0.756c-0.768-0.504-1.152-1.212-1.152-2.124c0-0.239,0.018-0.45,0.054-0.63s0.114-0.522,0.234-1.026
			l2.592-7.128h-2.016l1.008-1.439h1.512L118.713,409.195z"/>
		<path fill="#E3362F" d="M147.584,404.515l-7.2,20.815c-0.096,0.313-0.168,0.564-0.216,0.757c-0.048,0.192-0.072,0.324-0.072,0.396
			c0,0.865,0.48,1.297,1.44,1.297c1.176,0,2.736-0.648,4.68-1.944l0.288,0.433c-2.329,1.728-4.776,2.592-7.344,2.592
			c-1.296,0-2.304-0.24-3.024-0.72c-0.72-0.48-1.08-1.177-1.08-2.09c0-0.288,0.024-0.558,0.072-0.81
			c0.048-0.252,0.167-0.679,0.36-1.278l6.336-18.151L147.584,404.515z"/>
		<path fill="#E3362F" d="M162.92,417.941l-2.376,6.8c-0.288,0.795-0.432,1.446-0.432,1.953c0,0.771,0.384,1.157,1.151,1.157
			c1.032,0,2.521-0.744,4.465-2.232l0.359,0.433c-1.176,0.936-2.273,1.602-3.294,1.997c-1.021,0.396-2.106,0.595-3.258,0.595
			c-1.008,0-1.818-0.12-2.43-0.36c-0.612-0.239-1.098-0.672-1.458-1.296c-0.888,0.577-1.764,0.998-2.628,1.261
			c-0.864,0.264-1.812,0.396-2.844,0.396c-1.201,0-2.148-0.252-2.844-0.756c-0.696-0.505-1.044-1.188-1.044-2.053
			c0-0.264,0.013-0.479,0.036-0.647c0.024-0.168,0.108-0.576,0.252-1.225l2.808-8.136l5.4-1.08l-3.456,10.008
			c-0.336,0.836-0.504,1.475-0.504,1.917c0,0.786,0.408,1.18,1.224,1.18c0.408,0,0.923-0.135,1.548-0.403
			c0.624-0.27,1.26-0.623,1.908-1.063v-0.514c0-0.317,0.12-0.953,0.362-1.907l2.844-8.124l5.362-1.093l-0.721,1.872
			c0.576-0.455,1.021-0.918,1.332-1.386c0.313-0.468,0.469-0.966,0.469-1.494c0-0.815-0.313-1.224-0.936-1.224h-0.289l-0.215-0.434
			l3.6-1.952c0.768,0.555,1.152,1.183,1.152,1.881c0,1.302-0.648,2.532-1.945,3.688c-0.384,0.362-1.008,0.796-1.871,1.303
			C164.121,417.315,163.544,417.629,162.92,417.941z"/>
		<path fill="#E3362F" d="M180.127,416.331c0.625-0.456,1.08-0.889,1.369-1.298c0.287-0.408,0.432-0.864,0.432-1.37
			c0-0.312-0.133-0.612-0.396-0.9c-0.287-0.24-0.443-0.373-0.468-0.397l3.168-2.379c0.815,0.624,1.224,1.272,1.224,1.945
			c0,0.601-0.18,1.231-0.539,1.892c-0.36,0.66-0.853,1.255-1.477,1.783c-0.359,0.264-0.876,0.588-1.548,0.973
			c-0.528,0.288-1.068,0.564-1.62,0.828v0.36c0,0.913-0.091,1.783-0.271,2.612c-0.182,0.828-0.499,1.663-0.952,2.503
			c0.696,0.313,1.44,0.469,2.231,0.469c0.576,0,1.026-0.032,1.35-0.097c0.324-0.063,0.787-0.212,1.387-0.443l0.145,0.54
			c-0.457,0.219-0.9,0.37-1.332,0.452c-0.433,0.082-0.877,0.124-1.332,0.124c-0.576,0-1.045-0.026-1.404-0.078
			c-0.36-0.052-0.78-0.183-1.26-0.391c-1.033,1.872-2.215,3.24-3.547,4.104s-2.91,1.296-4.733,1.296
			c-1.872,0-3.253-0.336-4.14-1.008c-0.889-0.672-1.332-1.729-1.332-3.168c0-1.776,0.563-3.534,1.691-5.274
			c1.128-1.739,2.557-3.054,4.284-3.941c0.504-0.288,1.044-0.528,1.62-0.721c0.576-0.191,1.044-0.288,1.404-0.288
			c0.239,0,0.359,0.097,0.359,0.288c-1.152,1.824-2.148,3.757-2.988,5.796c-0.936,2.257-1.403,4.141-1.403,5.652
			c0,1.248,0.479,1.872,1.44,1.872c1.055,0,2.075-0.708,3.06-2.124c0.552-0.815,1.163-2.004,1.836-3.564
			c-1.345-1.56-2.017-3.287-2.017-5.184c0-1.2,0.252-2.147,0.756-2.844s1.188-1.044,2.053-1.044c0.744,0,1.373,0.27,1.89,0.81
			S179.936,415.396,180.127,416.331z M176.672,421.443c0.168-0.72,0.293-1.41,0.378-2.07c0.083-0.659,0.126-1.313,0.126-1.962
			c0-2.16-0.336-3.24-1.008-3.24c-0.289,0-0.528,0.198-0.721,0.595c-0.191,0.396-0.287,0.941-0.287,1.638
			c0,0.816,0.144,1.71,0.432,2.682C175.879,420.058,176.241,420.844,176.672,421.443z"/>
		<path fill="#E3362F" d="M170.984,430.228c0.864,0,1.584,0.288,2.16,0.863c0.576,0.576,0.864,1.297,0.864,2.16
			c0,0.816-0.288,1.513-0.864,2.088c-0.576,0.576-1.296,0.864-2.16,0.864c-0.84,0-1.542-0.282-2.106-0.846
			c-0.563-0.564-0.846-1.267-0.846-2.106c0-0.863,0.276-1.584,0.828-2.16C169.413,430.516,170.12,430.228,170.984,430.228z"/>
		<path fill="#E3362F" d="M192.511,414.747l-4.752,12.672v0.288v0.145c0.072,0,0.192-0.12,0.362-0.36
			c1.76-3.96,3.111-6.66,4.053-8.1c2.171-3.288,4.463-4.933,6.875-4.933c0.82,0,1.483,0.204,1.99,0.612
			c0.506,0.408,0.76,0.972,0.76,1.692c0,0.192-0.012,0.348-0.036,0.468s-0.108,0.396-0.252,0.828l-2.808,6.84
			c-0.288,0.647-0.432,1.152-0.432,1.512c0,0.816,0.504,1.225,1.512,1.225c0.863,0,1.859-0.324,2.988-0.973
			c0.768-0.479,1.332-0.828,1.691-1.044l0.288,0.433c-1.177,0.888-2.341,1.554-3.492,1.997c-1.151,0.445-2.34,0.666-3.563,0.666
			c-1.369,0-2.431-0.281-3.187-0.846c-0.756-0.563-1.134-1.338-1.134-2.322c0-0.647,0.145-1.296,0.432-1.943l3.168-7.776
			l0.145-0.359l-0.145-0.072c-0.096,0-0.24,0.072-0.432,0.216c-1.008,0.841-2.016,1.956-3.023,3.348
			c-0.697,0.961-1.537,2.34-2.521,4.141c-0.624,1.151-1.345,2.52-2.16,4.104c-0.288,0.601-0.595,1.003-0.918,1.206
			c-0.324,0.204-0.81,0.306-1.458,0.306c-2.16,0-3.24-0.84-3.24-2.52c0-0.504,0.143-1.152,0.426-1.944l3.189-8.496L192.511,414.747z
			"/>
		<path fill="#E3362F" d="M222.391,414.675l-5.039,13.969c1.871-0.48,4.176-1.536,6.912-3.168l0.287,0.504
			c-1.152,0.769-2.208,1.392-3.168,1.872s-2.424,1.104-4.392,1.872c-0.24,0.6-0.475,1.092-0.702,1.476
			c-0.229,0.384-0.475,0.731-0.738,1.044c-0.648,0.744-1.59,1.386-2.826,1.926s-2.357,0.811-3.365,0.811
			c-0.816,0-1.477-0.181-1.98-0.54c-0.504-0.36-0.756-0.828-0.756-1.404c0-1.728,1.703-2.856,5.111-3.384l0.648-2.016
			c-1.08,0.575-2.376,0.863-3.888,0.863c-1.488,0-2.641-0.288-3.456-0.863c-0.816-0.576-1.225-1.416-1.225-2.521
			c0-2.52,0.948-4.908,2.845-7.164c2.04-2.424,4.356-3.636,6.948-3.636c0.791,0,1.457,0.096,1.998,0.288
			c0.539,0.192,1.073,0.528,1.602,1.008L222.391,414.675z M211.52,430.299c-1.201,0.217-2.197,0.6-2.988,1.152
			c-0.793,0.552-1.188,1.152-1.188,1.8c0,0.672,0.384,1.009,1.152,1.009C209.743,434.26,210.75,432.939,211.52,430.299z
			 M216.487,416.043c-0.432-0.72-1.031-1.08-1.799-1.08c-0.865,0-1.627,0.492-2.287,1.477s-1.481,2.868-2.465,5.651
			c-0.457,1.297-0.751,2.209-0.883,2.736c-0.132,0.528-0.197,1.008-0.197,1.44c0,0.432,0.144,0.804,0.432,1.115
			c0.288,0.313,0.648,0.469,1.08,0.469c0.695,0,1.512-0.433,2.447-1.296L216.487,416.043z"/>
		<path fill="#E3362F" d="M237.006,416.185l5.832-1.149l-3.815,10.268c-0.24,0.647-0.36,1.174-0.36,1.58
			c0,0.407,0.127,0.736,0.379,0.987c0.252,0.252,0.581,0.377,0.989,0.377c1.104,0,2.208-0.691,3.312-2.074
			c0.528-0.668,1.248-1.836,2.16-3.506c-0.552-0.983-0.947-1.812-1.188-2.483c-0.313-0.888-0.469-1.788-0.469-2.7
			c0-1.176,0.271-2.094,0.811-2.754s1.278-0.99,2.215-0.99c0.936,0,1.674,0.354,2.213,1.063c0.541,0.708,0.811,1.674,0.811,2.897
			c0,1.704-0.696,3.744-2.088,6.12c1.319,0.744,2.615,1.116,3.888,1.116h0.864v0.869l-0.721,0.066c-1.488,0-2.928-0.563-4.319-1.691
			c-1.417,1.691-2.796,2.895-4.14,3.608c-1.537,0.834-3.349,1.251-5.437,1.251c-1.345,0-2.4-0.264-3.168-0.789
			c-0.769-0.527-1.151-1.27-1.151-2.227c0-0.312,0.035-0.593,0.107-0.844c0.072-0.252,0.229-0.688,0.468-1.311L237.006,416.185z
			 M245.719,422.02c0.383-0.937,0.66-1.806,0.828-2.61c0.167-0.804,0.252-1.638,0.252-2.502c0-1.535-0.36-2.304-1.08-2.304
			c-0.288,0-0.528,0.246-0.721,0.737c-0.191,0.492-0.287,1.158-0.287,1.998C244.711,418.707,245.047,420.268,245.719,422.02z"/>
		<path fill="#E3362F" d="M260.983,414.388l-3.889,10.872c-0.072,0.239-0.139,0.498-0.197,0.773
			c-0.061,0.276-0.091,0.475-0.091,0.594c0,0.816,0.479,1.225,1.44,1.225c0.863,0,1.859-0.372,2.988-1.116
			c0.527-0.36,1.067-0.731,1.619-1.116l0.36,0.36c-1.056,0.936-2.154,1.626-3.294,2.069c-1.141,0.445-2.346,0.666-3.618,0.666
			c-1.464,0-2.61-0.228-3.438-0.684c-0.827-0.456-1.241-1.092-1.241-1.908c0-0.455,0.12-1.008,0.36-1.655l3.239-8.856
			L260.983,414.388z M259.614,407.403c0.265,1.44,1.009,3.048,2.232,4.824l-2.016,0.071c-1.393-1.056-2.389-1.823-2.988-2.304
			c-1.057-0.864-1.98-1.728-2.771-2.592H259.614z"/>
		<path fill="#E3362F" d="M286.542,425.691l0.36,0.504c-2.395,1.776-4.57,2.664-6.527,2.664c-0.557,0-1.076-0.049-1.56-0.145
			s-1.124-0.312-1.921-0.647c-0.961,0.265-1.921,0.527-2.881,0.792c-0.504,0-0.882-0.258-1.134-0.774
			c-0.252-0.516-0.378-1.049-0.378-1.602c0-0.288,0.078-0.527,0.234-0.72s0.533-0.504,1.134-0.937
			c0.384-0.288,0.876-0.731,1.476-1.332c0.6-0.6,1.045-1.044,1.332-1.332c-0.145-0.527-0.24-0.966-0.287-1.313
			c-0.049-0.348-0.072-0.75-0.072-1.206c0-1.488,0.438-2.76,1.313-3.816c0.876-1.056,2.046-1.584,3.511-1.584
			c1.151,0,1.728,0.601,1.728,1.8c0,0.528-0.139,1.08-0.414,1.656c-0.276,0.576-0.69,1.176-1.242,1.8
			c0.312,0.648,0.558,1.278,0.737,1.891c0.181,0.611,0.271,1.229,0.271,1.854c0,2.064-1.536,3.576-4.608,4.536
			c0.385,0.096,0.799,0.192,1.242,0.288c0.444,0.096,0.895,0.144,1.351,0.144c1.104,0,2.172-0.222,3.204-0.666
			C284.442,427.102,285.486,426.483,286.542,425.691z M276.823,427.491c0.527-0.527,0.791-1.128,0.791-1.8
			c0-0.312-0.053-0.685-0.162-1.116c-0.107-0.432-0.293-0.972-0.557-1.62c-0.433,0.433-1.045,0.984-1.836,1.656
			c-0.409,0.336-0.805,0.672-1.188,1.008L276.823,427.491z M280.926,418.923c0.768-0.983,1.152-1.871,1.152-2.663
			c0-1.009-0.313-1.513-0.936-1.513c-0.217,0-0.402,0.12-0.559,0.36s-0.234,0.528-0.234,0.864
			C280.35,416.644,280.542,417.627,280.926,418.923z"/>
		<path fill="#E3362F" d="M302.814,417.941l-2.377,6.8c-0.287,0.795-0.432,1.446-0.432,1.953c0,0.771,0.383,1.157,1.152,1.157
			c1.031,0,2.52-0.744,4.463-2.232l0.361,0.433c-1.176,0.936-2.275,1.602-3.295,1.997c-1.02,0.396-2.105,0.595-3.258,0.595
			c-1.007,0-1.818-0.12-2.429-0.36c-0.612-0.239-1.098-0.672-1.459-1.296c-0.888,0.577-1.764,0.998-2.627,1.261
			c-0.864,0.264-1.813,0.396-2.844,0.396c-1.201,0-2.148-0.252-2.845-0.756c-0.696-0.505-1.044-1.188-1.044-2.053
			c0-0.264,0.013-0.479,0.036-0.647c0.024-0.168,0.108-0.576,0.252-1.225l2.808-8.136l5.4-1.08l-3.456,10.008
			c-0.337,0.836-0.504,1.475-0.504,1.917c0,0.786,0.407,1.18,1.224,1.18c0.408,0,0.924-0.135,1.549-0.403
			c0.623-0.27,1.26-0.623,1.908-1.063v-0.514c0-0.317,0.119-0.953,0.361-1.907l2.844-8.124l5.363-1.093l-0.721,1.872
			c0.576-0.455,1.02-0.918,1.332-1.386c0.311-0.468,0.469-0.966,0.469-1.494c0-0.815-0.313-1.224-0.938-1.224h-0.287l-0.217-0.434
			l3.6-1.952c0.77,0.555,1.152,1.183,1.152,1.881c0,1.302-0.646,2.532-1.943,3.688c-0.385,0.362-1.008,0.796-1.873,1.303
			C304.014,417.315,303.438,417.629,302.814,417.941z"/>
		<path fill="#E3362F" d="M299.213,407.26h5.545c-0.695,0.744-1.621,1.584-2.771,2.52c-0.984,0.792-1.98,1.584-2.989,2.376h-2.017
			c0.697-0.949,1.195-1.766,1.494-2.448C298.776,409.025,299.021,408.209,299.213,407.26z"/>
		<path fill="#E3362F" d="M320.309,425.691l0.289,0.432c-2.568,1.776-5.377,2.664-8.424,2.664c-1.729,0-3.121-0.204-4.176-0.612
			c-1.584-0.6-2.377-1.619-2.377-3.06c0-2.567,1.135-4.998,3.402-7.29s4.709-3.438,7.326-3.438c2.016,0,3.023,0.936,3.023,2.808
			c0,1.345-0.457,2.641-1.367,3.888c-0.912,1.248-1.873,1.872-2.881,1.872c-0.432,0-0.791-0.132-1.08-0.396
			c-0.287-0.264-0.432-0.612-0.432-1.044c0-0.912,0.791-1.872,2.375-2.88c1.584-1.009,2.377-1.824,2.377-2.448
			c0-0.288-0.107-0.528-0.324-0.72c-0.217-0.192-0.469-0.288-0.756-0.288c-1.633,0-3.133,1.38-4.5,4.14
			c-1.225,2.448-1.836,4.62-1.836,6.516c0,1.44,0.816,2.16,2.447,2.16c1.033,0,2.041-0.162,3.025-0.485
			C317.404,427.186,318.701,426.579,320.309,425.691z"/>
		<path fill="#E3362F" d="M342.916,404.515l-7.99,22.759l-0.145,0.434l0.145,0.145c0.07,0,0.336-0.435,0.791-1.303
			c0.553-1.086,1.104-2.172,1.656-3.258c1.367-2.871,2.375-4.754,3.023-5.646c1.535-2.123,3.289-3.186,5.256-3.186
			c1.008,0,1.824,0.229,2.449,0.685c0.623,0.456,0.936,1.044,0.936,1.764c0,1.536-0.912,2.916-2.736,4.14
			c-1.824,1.225-4.031,1.836-6.623,1.836c1.535,0.049,2.676,0.229,3.42,0.54c0.742,0.313,1.643,1.021,2.699,2.124
			c0.863,0.864,1.68,1.297,2.447,1.297c0.408,0,0.799-0.072,1.17-0.217c0.373-0.144,0.871-0.432,1.494-0.863l0.289,0.432
			c-2.041,1.68-4.176,2.52-6.408,2.52c-1.465,0-2.713-0.419-3.744-1.26c-1.031-0.84-1.992-2.195-2.881-4.067l-1.223,2.335
			c-0.625,1.29-1.123,2.111-1.494,2.464c-0.373,0.353-0.955,0.528-1.746,0.528c-1.033,0-1.842-0.246-2.43-0.74
			c-0.59-0.493-0.883-1.162-0.883-2.004c0-0.603,0.145-1.301,0.432-2.096l6.408-18.205L342.916,404.515z M338.525,422.739
			c1.512-0.648,2.801-1.535,3.869-2.664c1.068-1.128,1.602-2.16,1.602-3.096c0-0.624-0.264-0.937-0.791-0.937
			c-0.504,0-1.193,0.63-2.07,1.891C340.258,419.193,339.389,420.795,338.525,422.739z"/>
		<path fill="#E3362F" d="M362.789,404.515l-8.568,23.049l-0.072,0.288l0.072,0.144l0.287-0.288l1.225-2.52
			c0.768-1.584,1.572-3.036,2.412-4.356c1.176-1.848,2.352-3.287,3.527-4.319c1.488-1.32,2.939-1.98,4.357-1.98
			c0.84,0,1.494,0.188,1.961,0.562c0.469,0.374,0.703,0.887,0.703,1.538c0,0.289-0.049,0.633-0.145,1.031s-0.217,0.803-0.359,1.213
			l-2.521,6.08c-0.24,0.725-0.359,1.327-0.359,1.81c0,0.772,0.408,1.158,1.225,1.158c0.623,0,1.283-0.148,1.979-0.446
			c0.217-0.099,1.213-0.67,2.988-1.713l0.289,0.441c-1.08,0.835-2.221,1.498-3.42,1.989c-1.201,0.491-2.412,0.737-3.637,0.737
			c-1.297,0-2.352-0.278-3.168-0.833s-1.225-1.291-1.225-2.208c0-0.289,0.061-0.669,0.182-1.14c0.119-0.471,0.252-0.936,0.395-1.395
			l2.953-7.311l0.143-0.362l-0.143-0.072c-0.098,0-0.35,0.192-0.756,0.576c-0.313,0.312-0.781,0.816-1.404,1.512
			c-1.176,1.368-2.34,2.94-3.492,4.716c-0.816,1.225-1.836,2.916-3.061,5.076c-0.336,0.624-0.66,1.021-0.973,1.188
			c-0.311,0.167-0.898,0.252-1.764,0.252c-0.816,0-1.488-0.24-2.016-0.721s-0.791-1.104-0.791-1.873c0-0.552,0.143-1.151,0.432-1.8
			l6.984-18.871L362.789,404.515z"/>
		<path fill="#E3362F" d="M389.645,422.812l0.143,0.54c-0.455,0.219-0.898,0.37-1.332,0.452c-0.432,0.082-0.875,0.124-1.33,0.124
			c-0.576,0-1.045-0.026-1.404-0.078c-0.361-0.052-0.781-0.183-1.26-0.391c-1.033,1.872-2.215,3.24-3.547,4.104
			s-2.91,1.296-4.734,1.296c-1.871,0-3.252-0.336-4.139-1.008c-0.889-0.672-1.332-1.729-1.332-3.168
			c0-1.776,0.563-3.534,1.691-5.274c1.127-1.739,2.555-3.054,4.283-3.941c0.504-0.288,1.045-0.528,1.621-0.721
			c0.576-0.191,1.043-0.288,1.404-0.288c0.238,0,0.359,0.097,0.359,0.288c-1.152,1.824-2.148,3.757-2.988,5.796
			c-0.936,2.257-1.404,4.141-1.404,5.652c0,1.248,0.48,1.872,1.439,1.872c1.057,0,2.076-0.708,3.061-2.124
			c0.553-0.815,1.164-2.004,1.836-3.564c-1.344-1.56-2.016-3.287-2.016-5.184c0-1.2,0.252-2.147,0.756-2.844
			s1.188-1.044,2.053-1.044c0.959,0,1.727,0.402,2.303,1.206s0.865,1.89,0.865,3.258c0,0.912-0.098,1.782-0.289,2.609
			c-0.191,0.828-0.527,1.663-1.008,2.502c0.695,0.313,1.439,0.469,2.232,0.469c0.576,0,1.025-0.032,1.35-0.097
			C388.582,423.191,389.043,423.043,389.645,422.812z M382.301,421.443c0.166-0.72,0.293-1.41,0.377-2.07
			c0.084-0.659,0.127-1.313,0.127-1.962c0-2.16-0.338-3.24-1.008-3.24c-0.289,0-0.529,0.198-0.721,0.595
			c-0.193,0.396-0.289,0.941-0.289,1.638c0,0.816,0.145,1.71,0.434,2.682C381.508,420.058,381.867,420.844,382.301,421.443z"/>
		<path fill="#E3362F" d="M379.348,407.907h-0.863c0-0.84,0.402-1.638,1.205-2.394c0.805-0.757,1.699-1.135,2.682-1.135
			c0.889,0,1.627,0.259,2.215,0.774c0.588,0.517,0.883,1.146,0.883,1.89c0,0.841-0.66,1.62-1.98,2.34
			c-1.32,0.721-1.98,1.213-1.98,1.477c0,0.432,0.096,0.647,0.287,0.647h0.434c0.096,0,0.359-0.119,0.791-0.359v0.792
			c0,0.168-0.264,0.359-0.791,0.576c-0.336,0.144-0.6,0.216-0.793,0.216c-0.672,0-1.127-0.204-1.367-0.612
			c-0.145-0.239-0.217-0.684-0.217-1.332c0-0.792,0.564-1.632,1.691-2.52c1.129-0.888,1.693-1.561,1.693-2.017
			c0-0.191-0.096-0.384-0.289-0.576c-0.191-0.191-0.406-0.287-0.646-0.287c-0.721,0-1.375,0.258-1.963,0.773
			C379.75,406.678,379.42,407.26,379.348,407.907z"/>
		<path fill="#E3362F" d="M406.707,425.691l0.289,0.504c-1.729,0.96-3.426,1.645-5.094,2.052c-1.67,0.408-3.596,0.612-5.779,0.612
			c-1.848,0-3.264-0.18-4.248-0.54c-1.535-0.552-2.303-1.523-2.303-2.916c0-1.152,0.383-2.64,1.15-4.464
			c0.912-2.04,2.16-3.601,3.744-4.68c1.752-1.2,3.84-1.801,6.266-1.801c2.639,0,3.959,0.841,3.959,2.521
			c0,1.344-0.773,2.646-2.322,3.906c-1.547,1.26-3.678,2.334-6.389,3.222c-0.098,0.265-0.158,0.521-0.182,0.773
			s-0.035,0.45-0.035,0.595c0,0.769,0.293,1.38,0.883,1.836c0.588,0.456,1.373,0.684,2.357,0.684
			C401.355,427.995,403.924,427.228,406.707,425.691z M396.123,423.388c1.225-0.864,2.496-2.053,3.816-3.564
			c1.584-1.823,2.377-3.204,2.377-4.14c0-0.528-0.313-0.792-0.938-0.792c-0.959,0-2.039,1.164-3.24,3.491
			C397.299,420.016,396.627,421.684,396.123,423.388z"/>
		<path fill="#E3362F" d="M425.572,414.459l-4.682,13.029c-0.096,0.193-0.143,0.338-0.143,0.435l0.072,0.145l0.287-0.216
			c0.793-1.729,1.584-3.456,2.377-5.185c1.176-2.424,2.326-4.284,3.455-5.58c1.535-1.751,3.145-2.628,4.824-2.628
			c1.871,0,2.809,0.769,2.809,2.305c0,0.408-0.121,0.936-0.361,1.584l-3.6,9.144l-0.145,0.411l0.146,0.165
			c0.17,0,0.293-0.143,0.365-0.43l1.803-3.887c0.766-1.657,1.449-2.978,2.049-3.962c0.984-1.608,2.004-2.856,3.059-3.745
			c1.295-1.104,2.637-1.656,4.029-1.656c0.84,0,1.504,0.198,1.996,0.597s0.738,0.924,0.738,1.575c0,0.434-0.098,0.845-0.289,1.23
			l-2.951,7.674c-0.098,0.193-0.145,0.482-0.145,0.868c0,0.869,0.432,1.304,1.297,1.304c1.199,0,2.807-0.696,4.822-2.089
			l0.361,0.442c-2.52,1.817-4.945,2.726-7.271,2.726c-1.273,0-2.299-0.279-3.078-0.841c-0.781-0.562-1.17-1.28-1.17-2.159
			c0-0.683,0.135-1.39,0.406-2.122l3.121-7.872l0.129-0.188l-0.129-0.21l-0.289,0.145l-0.719,0.652
			c-1.225,1.11-2.496,2.799-3.816,5.066c-1.416,2.654-2.447,4.561-3.096,5.719c-0.385,0.797-0.727,1.298-1.025,1.502
			c-0.301,0.205-0.799,0.308-1.494,0.308c-0.914,0-1.656-0.265-2.232-0.796c-0.576-0.53-0.865-1.23-0.865-2.1
			c0-0.578,0.168-1.278,0.504-2.099l3.098-7.963l0.143-0.29l-0.143-0.145c-0.098,0-0.266,0.121-0.504,0.361
			c-1.441,1.425-2.832,3.223-4.178,5.394c-1.031,1.665-2.111,3.68-3.238,6.045c-0.266,0.628-0.541,1.05-0.828,1.267
			c-0.289,0.217-0.732,0.325-1.332,0.325c-2.256,0-3.385-0.867-3.385-2.604c0-0.7,0.168-1.423,0.504-2.171l2.953-8.25
			L425.572,414.459z"/>
		<path fill="#E3362F" d="M465.531,422.812l0.143,0.54c-0.455,0.219-0.898,0.37-1.332,0.452c-0.432,0.082-0.875,0.124-1.33,0.124
			c-0.576,0-1.045-0.026-1.404-0.078c-0.361-0.052-0.781-0.183-1.26-0.391c-1.033,1.872-2.215,3.24-3.547,4.104
			s-2.91,1.296-4.734,1.296c-1.871,0-3.252-0.336-4.139-1.008c-0.889-0.672-1.332-1.729-1.332-3.168
			c0-1.776,0.563-3.534,1.691-5.274c1.127-1.739,2.555-3.054,4.283-3.941c0.504-0.288,1.045-0.528,1.621-0.721
			c0.576-0.191,1.043-0.288,1.404-0.288c0.238,0,0.359,0.097,0.359,0.288c-1.152,1.824-2.148,3.757-2.988,5.796
			c-0.936,2.257-1.404,4.141-1.404,5.652c0,1.248,0.48,1.872,1.439,1.872c1.057,0,2.076-0.708,3.061-2.124
			c0.553-0.815,1.164-2.004,1.836-3.564c-1.344-1.56-2.016-3.287-2.016-5.184c0-1.2,0.252-2.147,0.756-2.844
			s1.188-1.044,2.053-1.044c0.959,0,1.727,0.402,2.303,1.206s0.865,1.89,0.865,3.258c0,0.912-0.098,1.782-0.289,2.609
			c-0.191,0.828-0.527,1.663-1.008,2.502c0.695,0.313,1.439,0.469,2.232,0.469c0.576,0,1.025-0.032,1.35-0.097
			C464.469,423.191,464.93,423.043,465.531,422.812z M458.188,421.443c0.166-0.72,0.293-1.41,0.377-2.07
			c0.084-0.659,0.127-1.313,0.127-1.962c0-2.16-0.338-3.24-1.008-3.24c-0.289,0-0.529,0.198-0.721,0.595
			c-0.193,0.396-0.289,0.941-0.289,1.638c0,0.816,0.145,1.71,0.434,2.682C457.395,420.058,457.754,420.844,458.188,421.443z"/>
		<path fill="#E3362F" d="M452.859,430.228c0.863,0,1.584,0.288,2.16,0.863c0.574,0.576,0.863,1.297,0.863,2.16
			c0,0.816-0.289,1.513-0.863,2.088c-0.576,0.576-1.297,0.864-2.16,0.864c-0.84,0-1.543-0.282-2.107-0.846
			c-0.563-0.564-0.846-1.267-0.846-2.106c0-0.863,0.277-1.584,0.828-2.16C451.287,430.516,451.994,430.228,452.859,430.228z"/>
		<path fill="#E3362F" d="M474.818,414.388l-3.889,10.872c-0.072,0.239-0.139,0.498-0.197,0.773c-0.061,0.276-0.09,0.475-0.09,0.594
			c0,0.816,0.48,1.225,1.439,1.225c0.865,0,1.859-0.372,2.988-1.116c0.527-0.36,1.068-0.731,1.619-1.116l0.289,0.36
			c-1.051,0.936-2.141,1.626-3.273,2.069c-1.133,0.445-2.332,0.666-3.596,0.666c-1.455,0-2.594-0.228-3.416-0.684
			c-0.824-0.456-1.234-1.092-1.234-1.908c0-0.455,0.119-1.008,0.359-1.655l3.24-8.856L474.818,414.388z M473.955,406.251
			c0.863,0,1.584,0.288,2.16,0.864c0.574,0.576,0.863,1.296,0.863,2.16c0,0.816-0.289,1.512-0.863,2.088
			c-0.576,0.576-1.297,0.864-2.16,0.864c-0.842,0-1.543-0.282-2.107-0.847c-0.564-0.563-0.846-1.266-0.846-2.105
			c0-0.864,0.275-1.584,0.828-2.16S473.09,406.251,473.955,406.251z"/>
		<path fill="#E3362F" d="M495.697,414.747l-4.752,12.672v0.288v0.145c0.072,0,0.193-0.12,0.361-0.36
			c1.762-3.96,3.113-6.66,4.053-8.1c2.172-3.288,4.463-4.933,6.877-4.933c0.82,0,1.482,0.204,1.99,0.612
			c0.506,0.408,0.76,0.972,0.76,1.692c0,0.192-0.014,0.348-0.037,0.468s-0.107,0.396-0.252,0.828l-2.807,6.84
			c-0.289,0.647-0.434,1.152-0.434,1.512c0,0.816,0.504,1.225,1.514,1.225c0.863,0,1.859-0.324,2.986-0.973
			c0.77-0.479,1.332-0.828,1.693-1.044l0.287,0.433c-1.176,0.888-2.34,1.554-3.492,1.997c-1.152,0.445-2.34,0.666-3.563,0.666
			c-1.369,0-2.432-0.281-3.188-0.846c-0.756-0.563-1.133-1.338-1.133-2.322c0-0.647,0.143-1.296,0.432-1.943l3.168-7.776
			l0.145-0.359l-0.145-0.072c-0.096,0-0.24,0.072-0.432,0.216c-1.008,0.841-2.018,1.956-3.025,3.348
			c-0.695,0.961-1.535,2.34-2.52,4.141c-0.625,1.151-1.344,2.52-2.16,4.104c-0.287,0.601-0.594,1.003-0.918,1.206
			c-0.324,0.204-0.811,0.306-1.457,0.306c-2.16,0-3.24-0.84-3.24-2.52c0-0.504,0.141-1.152,0.426-1.944l3.189-8.496L495.697,414.747
			z"/>
		<path fill="#E3362F" d="M519.602,404.515l-8.568,23.049l-0.07,0.288l0.07,0.144l0.289-0.288l1.225-2.52
			c0.768-1.584,1.57-3.036,2.41-4.356c1.176-1.848,2.354-3.287,3.529-4.319c1.488-1.32,2.939-1.98,4.355-1.98
			c0.84,0,1.494,0.188,1.963,0.562c0.467,0.374,0.701,0.887,0.701,1.538c0,0.289-0.049,0.633-0.145,1.031s-0.215,0.803-0.359,1.213
			l-2.52,6.08c-0.24,0.725-0.361,1.327-0.361,1.81c0,0.772,0.408,1.158,1.225,1.158c0.625,0,1.283-0.148,1.98-0.446
			c0.217-0.099,1.211-0.67,2.988-1.713l0.287,0.441c-1.08,0.835-2.221,1.498-3.42,1.989s-2.412,0.737-3.635,0.737
			c-1.297,0-2.354-0.278-3.168-0.833c-0.816-0.555-1.225-1.291-1.225-2.208c0-0.289,0.059-0.669,0.18-1.14
			c0.119-0.471,0.252-0.936,0.396-1.395l2.951-7.311l0.145-0.362l-0.145-0.072c-0.096,0-0.348,0.192-0.756,0.576
			c-0.313,0.312-0.779,0.816-1.404,1.512c-1.176,1.368-2.34,2.94-3.492,4.716c-0.816,1.225-1.836,2.916-3.059,5.076
			c-0.338,0.624-0.66,1.021-0.973,1.188c-0.313,0.167-0.9,0.252-1.764,0.252c-0.816,0-1.488-0.24-2.016-0.721
			c-0.529-0.48-0.793-1.104-0.793-1.873c0-0.552,0.145-1.151,0.432-1.8l6.984-18.871L519.602,404.515z"/>
	</g>
	<g>
		<path fill="#50B848" d="M553.188,417.201c0,0,3.338,2.212,7.666,1.346c-1.439-0.45-1.439-0.45-1.439-0.45s2.879,0.734,6.963-1.73
			c-1.172-0.284-1.172-0.284-1.172-0.284s4-0.498,7.623-5.376c0,0-3.117-1.479-9.34-0.049c0.324-0.545,0.324-0.545,0.324-0.545
			s-4.277,0.502-5.686,2.313c0.059-0.79,0.059-0.79,0.059-0.79s-4.299,1.939-4.271,4.531c1.875-0.528,2.924-1.132,2.924-1.132
			l2.326-1.523l-1.221,1.213l2.1-0.496l1.699-1.352l-1.098,1.197c0,0,6.15-1.584,6.662-1.499c-1.105,0.296-3.439,0.914-3.777,1.052
			c0.377,0.032,1.414,0.15,1.414,0.15l-2.217,0.071l-3.762,1.104l1.988,0.186l-2.758,0.104
			C558.195,415.242,553.809,416.663,553.188,417.201z"/>
		<path fill="#E3362F" d="M546.025,414.531l-3.889,10.498c-0.24,0.555-0.359,0.965-0.359,1.23c0,0.869,0.48,1.307,1.439,1.304
			c1.432-0.005,2.682-0.88,3.807-1.797c1.607-1.31,4.625-5.875,6.084-8.541c0,0-2.281,4.552-4.041,7.125
			c-1.084,1.583-2.951,3.207-4.283,3.698c-1.332,0.492-2.574,0.738-3.727,0.738c-1.799,0-3.119-0.552-3.959-1.656
			c-1.656,1.104-3.361,1.656-5.111,1.656c-1.346,0-2.389-0.264-3.133-0.792c-0.889-0.624-1.332-1.584-1.332-2.88
			c0-1.08,0.301-2.31,0.9-3.69c0.6-1.379,1.379-2.621,2.34-3.726c1.801-2.111,4.055-3.168,6.768-3.168
			c1.416,0,2.424,0.336,3.023,1.008L546.025,414.531z M540.121,416.188c-0.48-0.624-1.104-0.937-1.871-0.937
			c-0.672,0-1.23,0.252-1.674,0.756c-0.445,0.505-0.99,1.549-1.639,3.133c-0.6,1.32-1.109,2.64-1.529,3.96s-0.631,2.231-0.631,2.735
			c0,1.152,0.504,1.729,1.512,1.729c0.432,0,0.877-0.108,1.332-0.324c0.191-0.096,0.613-0.348,1.26-0.756l-0.143-0.72
			c0-0.288,0.049-0.66,0.15-1.116c0.039-0.192,0.109-0.444,0.209-0.756L540.121,416.188z"/>
		<path fill="#E3362F" d="M541.563,407.476c0.215,1.032,0.455,1.817,0.719,2.357c0.266,0.54,0.793,1.362,1.584,2.466l-2.016,0.072
			c-1.391-1.056-2.389-1.823-2.988-2.304c-1.055-0.864-1.98-1.729-2.771-2.592H541.563z"/>
	</g>
</g>
</svg>
